<mxfile host="app.diagrams.net" modified="2020-09-16T11:40:18.778Z" agent="5.0 (Windows NT 10.0; Win64; x64) AppleWebKit/537.36 (KHTML, like Gecko) Chrome/85.0.4183.102 Safari/537.36" etag="IzZXiq7RME8rix9y6T7g" version="13.7.1" type="github">
  <diagram id="TO-LH2G8zchfPkXwgZ4y" name="Page-1">
    <mxGraphModel dx="2858" dy="1143" grid="1" gridSize="10" guides="1" tooltips="1" connect="1" arrows="1" fold="1" page="1" pageScale="1" pageWidth="827" pageHeight="1169" math="0" shadow="0">
      <root>
        <mxCell id="0" />
        <mxCell id="1" parent="0" />
        <mxCell id="dGLLMFxv43-P8aLfuzKe-1" value="Start" style="rounded=1;whiteSpace=wrap;html=1;" vertex="1" parent="1">
          <mxGeometry x="310" width="120" height="60" as="geometry" />
        </mxCell>
        <mxCell id="dGLLMFxv43-P8aLfuzKe-2" value="" style="endArrow=classic;html=1;exitX=0.5;exitY=1;exitDx=0;exitDy=0;" edge="1" parent="1" source="dGLLMFxv43-P8aLfuzKe-1" target="dGLLMFxv43-P8aLfuzKe-3">
          <mxGeometry width="50" height="50" relative="1" as="geometry">
            <mxPoint x="370" y="340" as="sourcePoint" />
            <mxPoint x="370" y="120" as="targetPoint" />
          </mxGeometry>
        </mxCell>
        <mxCell id="dGLLMFxv43-P8aLfuzKe-3" value="User input&amp;nbsp; pivot (e.g. 5)" style="shape=parallelogram;perimeter=parallelogramPerimeter;whiteSpace=wrap;html=1;fixedSize=1;" vertex="1" parent="1">
          <mxGeometry x="260" y="90" width="220" height="60" as="geometry" />
        </mxCell>
        <mxCell id="dGLLMFxv43-P8aLfuzKe-4" value="" style="endArrow=classic;html=1;exitX=0.5;exitY=1;exitDx=0;exitDy=0;" edge="1" parent="1" source="dGLLMFxv43-P8aLfuzKe-3">
          <mxGeometry width="50" height="50" relative="1" as="geometry">
            <mxPoint x="370" y="340" as="sourcePoint" />
            <mxPoint x="370" y="200" as="targetPoint" />
          </mxGeometry>
        </mxCell>
        <mxCell id="dGLLMFxv43-P8aLfuzKe-8" value="is Number greater than 5" style="rhombus;whiteSpace=wrap;html=1;" vertex="1" parent="1">
          <mxGeometry x="295" y="200" width="150" height="150" as="geometry" />
        </mxCell>
        <mxCell id="dGLLMFxv43-P8aLfuzKe-9" value="yes" style="endArrow=classic;html=1;exitX=1;exitY=0.5;exitDx=0;exitDy=0;entryX=0;entryY=0.5;entryDx=0;entryDy=0;" edge="1" parent="1" source="dGLLMFxv43-P8aLfuzKe-8" target="dGLLMFxv43-P8aLfuzKe-13">
          <mxGeometry width="50" height="50" relative="1" as="geometry">
            <mxPoint x="370" y="510" as="sourcePoint" />
            <mxPoint x="580" y="275" as="targetPoint" />
          </mxGeometry>
        </mxCell>
        <mxCell id="dGLLMFxv43-P8aLfuzKe-10" value="no" style="endArrow=classic;html=1;exitX=0;exitY=0.5;exitDx=0;exitDy=0;" edge="1" parent="1" source="dGLLMFxv43-P8aLfuzKe-8" target="dGLLMFxv43-P8aLfuzKe-11">
          <mxGeometry width="50" height="50" relative="1" as="geometry">
            <mxPoint x="370" y="510" as="sourcePoint" />
            <mxPoint x="170" y="275" as="targetPoint" />
          </mxGeometry>
        </mxCell>
        <mxCell id="dGLLMFxv43-P8aLfuzKe-11" value="put number into lower-number-array" style="rounded=0;whiteSpace=wrap;html=1;" vertex="1" parent="1">
          <mxGeometry x="110" y="245" width="120" height="60" as="geometry" />
        </mxCell>
        <mxCell id="dGLLMFxv43-P8aLfuzKe-13" value="&lt;span&gt;put number into higher-number-array&lt;/span&gt;" style="rounded=0;whiteSpace=wrap;html=1;" vertex="1" parent="1">
          <mxGeometry x="790" y="245" width="120" height="60" as="geometry" />
        </mxCell>
        <mxCell id="dGLLMFxv43-P8aLfuzKe-14" value="" style="endArrow=classic;html=1;exitX=0.45;exitY=0.983;exitDx=0;exitDy=0;exitPerimeter=0;" edge="1" parent="1" source="dGLLMFxv43-P8aLfuzKe-11">
          <mxGeometry width="50" height="50" relative="1" as="geometry">
            <mxPoint x="370" y="510" as="sourcePoint" />
            <mxPoint x="164" y="380" as="targetPoint" />
          </mxGeometry>
        </mxCell>
        <mxCell id="dGLLMFxv43-P8aLfuzKe-15" value="change pivot &lt;br&gt;number (e.g. 3)" style="shape=parallelogram;perimeter=parallelogramPerimeter;whiteSpace=wrap;html=1;fixedSize=1;" vertex="1" parent="1">
          <mxGeometry x="80" y="380" width="160" height="60" as="geometry" />
        </mxCell>
        <mxCell id="dGLLMFxv43-P8aLfuzKe-16" value="change pivot &lt;br&gt;number (e.g. 7)" style="shape=parallelogram;perimeter=parallelogramPerimeter;whiteSpace=wrap;html=1;fixedSize=1;" vertex="1" parent="1">
          <mxGeometry x="770" y="380" width="160" height="60" as="geometry" />
        </mxCell>
        <mxCell id="dGLLMFxv43-P8aLfuzKe-17" value="" style="endArrow=classic;html=1;exitX=0.5;exitY=1;exitDx=0;exitDy=0;entryX=0.5;entryY=0;entryDx=0;entryDy=0;" edge="1" parent="1" source="dGLLMFxv43-P8aLfuzKe-13" target="dGLLMFxv43-P8aLfuzKe-16">
          <mxGeometry width="50" height="50" relative="1" as="geometry">
            <mxPoint x="580" y="490" as="sourcePoint" />
            <mxPoint x="630" y="440" as="targetPoint" />
          </mxGeometry>
        </mxCell>
        <mxCell id="dGLLMFxv43-P8aLfuzKe-18" value="is Number greater than 3" style="rhombus;whiteSpace=wrap;html=1;" vertex="1" parent="1">
          <mxGeometry x="85" y="480" width="150" height="150" as="geometry" />
        </mxCell>
        <mxCell id="dGLLMFxv43-P8aLfuzKe-19" value="" style="endArrow=classic;html=1;exitX=0.5;exitY=1;exitDx=0;exitDy=0;entryX=0.5;entryY=0;entryDx=0;entryDy=0;" edge="1" parent="1" source="dGLLMFxv43-P8aLfuzKe-15" target="dGLLMFxv43-P8aLfuzKe-18">
          <mxGeometry width="50" height="50" relative="1" as="geometry">
            <mxPoint x="370" y="590" as="sourcePoint" />
            <mxPoint x="420" y="540" as="targetPoint" />
          </mxGeometry>
        </mxCell>
        <mxCell id="dGLLMFxv43-P8aLfuzKe-20" value="yes" style="endArrow=classic;html=1;exitX=1;exitY=0.5;exitDx=0;exitDy=0;" edge="1" parent="1" source="dGLLMFxv43-P8aLfuzKe-18">
          <mxGeometry width="50" height="50" relative="1" as="geometry">
            <mxPoint x="370" y="590" as="sourcePoint" />
            <mxPoint x="280" y="620" as="targetPoint" />
            <Array as="points">
              <mxPoint x="280" y="555" />
            </Array>
          </mxGeometry>
        </mxCell>
        <mxCell id="dGLLMFxv43-P8aLfuzKe-21" value="no" style="endArrow=classic;html=1;" edge="1" parent="1" source="dGLLMFxv43-P8aLfuzKe-18">
          <mxGeometry width="50" height="50" relative="1" as="geometry">
            <mxPoint x="-55" y="560" as="sourcePoint" />
            <mxPoint x="-90" y="625" as="targetPoint" />
            <Array as="points">
              <mxPoint x="-90" y="560" />
            </Array>
          </mxGeometry>
        </mxCell>
        <mxCell id="dGLLMFxv43-P8aLfuzKe-22" value="put number into higher-number array" style="rounded=0;whiteSpace=wrap;html=1;" vertex="1" parent="1">
          <mxGeometry x="220" y="620" width="120" height="60" as="geometry" />
        </mxCell>
        <mxCell id="dGLLMFxv43-P8aLfuzKe-39" style="edgeStyle=orthogonalEdgeStyle;rounded=0;orthogonalLoop=1;jettySize=auto;html=1;exitX=0.5;exitY=1;exitDx=0;exitDy=0;entryX=0.5;entryY=0;entryDx=0;entryDy=0;" edge="1" parent="1" source="dGLLMFxv43-P8aLfuzKe-23" target="dGLLMFxv43-P8aLfuzKe-36">
          <mxGeometry relative="1" as="geometry" />
        </mxCell>
        <mxCell id="dGLLMFxv43-P8aLfuzKe-23" value="put number into lower-number array" style="rounded=0;whiteSpace=wrap;html=1;" vertex="1" parent="1">
          <mxGeometry x="-150" y="625" width="120" height="60" as="geometry" />
        </mxCell>
        <mxCell id="dGLLMFxv43-P8aLfuzKe-24" value="is Number greater than 7" style="rhombus;whiteSpace=wrap;html=1;" vertex="1" parent="1">
          <mxGeometry x="775" y="480" width="150" height="150" as="geometry" />
        </mxCell>
        <mxCell id="dGLLMFxv43-P8aLfuzKe-25" value="" style="endArrow=classic;html=1;exitX=0.5;exitY=1;exitDx=0;exitDy=0;entryX=0.5;entryY=0;entryDx=0;entryDy=0;" edge="1" parent="1" target="dGLLMFxv43-P8aLfuzKe-24">
          <mxGeometry width="50" height="50" relative="1" as="geometry">
            <mxPoint x="850" y="440" as="sourcePoint" />
            <mxPoint x="1110" y="540" as="targetPoint" />
          </mxGeometry>
        </mxCell>
        <mxCell id="dGLLMFxv43-P8aLfuzKe-26" value="yes" style="endArrow=classic;html=1;exitX=1;exitY=0.5;exitDx=0;exitDy=0;" edge="1" parent="1" source="dGLLMFxv43-P8aLfuzKe-24">
          <mxGeometry width="50" height="50" relative="1" as="geometry">
            <mxPoint x="1035" y="555" as="sourcePoint" />
            <mxPoint x="1080" y="620" as="targetPoint" />
            <Array as="points">
              <mxPoint x="1080" y="555" />
            </Array>
          </mxGeometry>
        </mxCell>
        <mxCell id="dGLLMFxv43-P8aLfuzKe-27" value="no" style="endArrow=classic;html=1;exitX=0;exitY=0.5;exitDx=0;exitDy=0;" edge="1" parent="1" source="dGLLMFxv43-P8aLfuzKe-24">
          <mxGeometry width="50" height="50" relative="1" as="geometry">
            <mxPoint x="890" y="590" as="sourcePoint" />
            <mxPoint x="740" y="620" as="targetPoint" />
            <Array as="points">
              <mxPoint x="740" y="555" />
            </Array>
          </mxGeometry>
        </mxCell>
        <mxCell id="dGLLMFxv43-P8aLfuzKe-70" style="edgeStyle=orthogonalEdgeStyle;rounded=0;orthogonalLoop=1;jettySize=auto;html=1;exitX=0.5;exitY=1;exitDx=0;exitDy=0;entryX=0.5;entryY=0;entryDx=0;entryDy=0;" edge="1" parent="1" source="dGLLMFxv43-P8aLfuzKe-28" target="dGLLMFxv43-P8aLfuzKe-67">
          <mxGeometry relative="1" as="geometry" />
        </mxCell>
        <mxCell id="dGLLMFxv43-P8aLfuzKe-28" value="put number into higher-number array" style="rounded=0;whiteSpace=wrap;html=1;" vertex="1" parent="1">
          <mxGeometry x="1020" y="620" width="120" height="60" as="geometry" />
        </mxCell>
        <mxCell id="dGLLMFxv43-P8aLfuzKe-29" value="put number into lower-number array" style="rounded=0;whiteSpace=wrap;html=1;" vertex="1" parent="1">
          <mxGeometry x="680" y="620" width="120" height="60" as="geometry" />
        </mxCell>
        <mxCell id="dGLLMFxv43-P8aLfuzKe-30" value="is Number greater than or equal to 2" style="rhombus;whiteSpace=wrap;html=1;" vertex="1" parent="1">
          <mxGeometry x="-165" y="840" width="150" height="150" as="geometry" />
        </mxCell>
        <mxCell id="dGLLMFxv43-P8aLfuzKe-32" value="yes" style="endArrow=classic;html=1;exitX=1;exitY=0.5;exitDx=0;exitDy=0;" edge="1" parent="1" source="dGLLMFxv43-P8aLfuzKe-30">
          <mxGeometry width="50" height="50" relative="1" as="geometry">
            <mxPoint x="120" y="950" as="sourcePoint" />
            <mxPoint x="30" y="980" as="targetPoint" />
            <Array as="points">
              <mxPoint x="30" y="915" />
            </Array>
          </mxGeometry>
        </mxCell>
        <mxCell id="dGLLMFxv43-P8aLfuzKe-33" value="no" style="endArrow=classic;html=1;exitX=0;exitY=0.5;exitDx=0;exitDy=0;" edge="1" parent="1" source="dGLLMFxv43-P8aLfuzKe-30">
          <mxGeometry width="50" height="50" relative="1" as="geometry">
            <mxPoint x="-50" y="950" as="sourcePoint" />
            <mxPoint x="-200" y="980" as="targetPoint" />
            <Array as="points">
              <mxPoint x="-200" y="915" />
            </Array>
          </mxGeometry>
        </mxCell>
        <mxCell id="dGLLMFxv43-P8aLfuzKe-74" style="edgeStyle=orthogonalEdgeStyle;rounded=0;orthogonalLoop=1;jettySize=auto;html=1;exitX=0.5;exitY=1;exitDx=0;exitDy=0;" edge="1" parent="1" source="dGLLMFxv43-P8aLfuzKe-34">
          <mxGeometry relative="1" as="geometry">
            <mxPoint x="31" y="1090" as="targetPoint" />
          </mxGeometry>
        </mxCell>
        <mxCell id="dGLLMFxv43-P8aLfuzKe-34" value="put number into higher-number array" style="rounded=0;whiteSpace=wrap;html=1;" vertex="1" parent="1">
          <mxGeometry x="-30" y="980" width="120" height="60" as="geometry" />
        </mxCell>
        <mxCell id="dGLLMFxv43-P8aLfuzKe-73" style="edgeStyle=orthogonalEdgeStyle;rounded=0;orthogonalLoop=1;jettySize=auto;html=1;exitX=0.5;exitY=1;exitDx=0;exitDy=0;" edge="1" parent="1" source="dGLLMFxv43-P8aLfuzKe-35">
          <mxGeometry relative="1" as="geometry">
            <mxPoint x="483.3333333333333" y="1130" as="targetPoint" />
          </mxGeometry>
        </mxCell>
        <mxCell id="dGLLMFxv43-P8aLfuzKe-35" value="put number into lower-number array" style="rounded=0;whiteSpace=wrap;html=1;" vertex="1" parent="1">
          <mxGeometry x="-260" y="980" width="120" height="60" as="geometry" />
        </mxCell>
        <mxCell id="dGLLMFxv43-P8aLfuzKe-40" style="edgeStyle=orthogonalEdgeStyle;rounded=0;orthogonalLoop=1;jettySize=auto;html=1;exitX=0.5;exitY=1;exitDx=0;exitDy=0;" edge="1" parent="1" source="dGLLMFxv43-P8aLfuzKe-36" target="dGLLMFxv43-P8aLfuzKe-30">
          <mxGeometry relative="1" as="geometry" />
        </mxCell>
        <mxCell id="dGLLMFxv43-P8aLfuzKe-36" value="change pivot &lt;br&gt;number (e.g. 2)" style="shape=parallelogram;perimeter=parallelogramPerimeter;whiteSpace=wrap;html=1;fixedSize=1;" vertex="1" parent="1">
          <mxGeometry x="-170" y="730" width="160" height="60" as="geometry" />
        </mxCell>
        <mxCell id="dGLLMFxv43-P8aLfuzKe-41" style="edgeStyle=orthogonalEdgeStyle;rounded=0;orthogonalLoop=1;jettySize=auto;html=1;exitX=0.5;exitY=1;exitDx=0;exitDy=0;entryX=0.5;entryY=0;entryDx=0;entryDy=0;" edge="1" parent="1" target="dGLLMFxv43-P8aLfuzKe-46">
          <mxGeometry relative="1" as="geometry">
            <mxPoint x="280" y="680" as="sourcePoint" />
          </mxGeometry>
        </mxCell>
        <mxCell id="dGLLMFxv43-P8aLfuzKe-42" value="is Number greater than or equal to 4" style="rhombus;whiteSpace=wrap;html=1;" vertex="1" parent="1">
          <mxGeometry x="205" y="835" width="150" height="150" as="geometry" />
        </mxCell>
        <mxCell id="dGLLMFxv43-P8aLfuzKe-43" value="yes" style="endArrow=classic;html=1;exitX=1;exitY=0.5;exitDx=0;exitDy=0;entryX=0.425;entryY=0.017;entryDx=0;entryDy=0;entryPerimeter=0;" edge="1" parent="1" source="dGLLMFxv43-P8aLfuzKe-42" target="dGLLMFxv43-P8aLfuzKe-53">
          <mxGeometry width="50" height="50" relative="1" as="geometry">
            <mxPoint x="490" y="945" as="sourcePoint" />
            <mxPoint x="400" y="975" as="targetPoint" />
            <Array as="points">
              <mxPoint x="400" y="910" />
            </Array>
          </mxGeometry>
        </mxCell>
        <mxCell id="dGLLMFxv43-P8aLfuzKe-44" value="no" style="endArrow=classic;html=1;exitX=0;exitY=0.5;exitDx=0;exitDy=0;entryX=0.417;entryY=-0.05;entryDx=0;entryDy=0;entryPerimeter=0;" edge="1" parent="1" source="dGLLMFxv43-P8aLfuzKe-42" target="dGLLMFxv43-P8aLfuzKe-54">
          <mxGeometry width="50" height="50" relative="1" as="geometry">
            <mxPoint x="320" y="945" as="sourcePoint" />
            <mxPoint x="170" y="975" as="targetPoint" />
            <Array as="points">
              <mxPoint x="170" y="910" />
            </Array>
          </mxGeometry>
        </mxCell>
        <mxCell id="dGLLMFxv43-P8aLfuzKe-45" style="edgeStyle=orthogonalEdgeStyle;rounded=0;orthogonalLoop=1;jettySize=auto;html=1;exitX=0.5;exitY=1;exitDx=0;exitDy=0;" edge="1" parent="1" source="dGLLMFxv43-P8aLfuzKe-46" target="dGLLMFxv43-P8aLfuzKe-42">
          <mxGeometry relative="1" as="geometry" />
        </mxCell>
        <mxCell id="dGLLMFxv43-P8aLfuzKe-46" value="change pivot &lt;br&gt;number (e.g. 4)" style="shape=parallelogram;perimeter=parallelogramPerimeter;whiteSpace=wrap;html=1;fixedSize=1;" vertex="1" parent="1">
          <mxGeometry x="200" y="725" width="160" height="60" as="geometry" />
        </mxCell>
        <mxCell id="dGLLMFxv43-P8aLfuzKe-76" style="edgeStyle=orthogonalEdgeStyle;rounded=0;orthogonalLoop=1;jettySize=auto;html=1;exitX=0.5;exitY=1;exitDx=0;exitDy=0;" edge="1" parent="1" source="dGLLMFxv43-P8aLfuzKe-53">
          <mxGeometry relative="1" as="geometry">
            <mxPoint x="410" y="1090" as="targetPoint" />
          </mxGeometry>
        </mxCell>
        <mxCell id="dGLLMFxv43-P8aLfuzKe-53" value="put number into higher-number array" style="rounded=0;whiteSpace=wrap;html=1;" vertex="1" parent="1">
          <mxGeometry x="350" y="980" width="120" height="60" as="geometry" />
        </mxCell>
        <mxCell id="dGLLMFxv43-P8aLfuzKe-75" style="edgeStyle=orthogonalEdgeStyle;rounded=0;orthogonalLoop=1;jettySize=auto;html=1;exitX=0.5;exitY=1;exitDx=0;exitDy=0;" edge="1" parent="1" source="dGLLMFxv43-P8aLfuzKe-54">
          <mxGeometry relative="1" as="geometry">
            <mxPoint x="180" y="1090" as="targetPoint" />
          </mxGeometry>
        </mxCell>
        <mxCell id="dGLLMFxv43-P8aLfuzKe-54" value="put number into lower-number array" style="rounded=0;whiteSpace=wrap;html=1;" vertex="1" parent="1">
          <mxGeometry x="120" y="980" width="120" height="60" as="geometry" />
        </mxCell>
        <mxCell id="dGLLMFxv43-P8aLfuzKe-56" value="is Number greater than or equal to 6" style="rhombus;whiteSpace=wrap;html=1;" vertex="1" parent="1">
          <mxGeometry x="635" y="840" width="150" height="150" as="geometry" />
        </mxCell>
        <mxCell id="dGLLMFxv43-P8aLfuzKe-57" value="yes" style="endArrow=classic;html=1;exitX=1;exitY=0.5;exitDx=0;exitDy=0;" edge="1" parent="1" source="dGLLMFxv43-P8aLfuzKe-56">
          <mxGeometry width="50" height="50" relative="1" as="geometry">
            <mxPoint x="920" y="950" as="sourcePoint" />
            <mxPoint x="830" y="980" as="targetPoint" />
            <Array as="points">
              <mxPoint x="830" y="915" />
            </Array>
          </mxGeometry>
        </mxCell>
        <mxCell id="dGLLMFxv43-P8aLfuzKe-58" value="no" style="endArrow=classic;html=1;exitX=0;exitY=0.5;exitDx=0;exitDy=0;" edge="1" parent="1" source="dGLLMFxv43-P8aLfuzKe-56">
          <mxGeometry width="50" height="50" relative="1" as="geometry">
            <mxPoint x="750" y="950" as="sourcePoint" />
            <mxPoint x="600" y="980" as="targetPoint" />
            <Array as="points">
              <mxPoint x="600" y="915" />
            </Array>
          </mxGeometry>
        </mxCell>
        <mxCell id="dGLLMFxv43-P8aLfuzKe-78" style="edgeStyle=orthogonalEdgeStyle;rounded=0;orthogonalLoop=1;jettySize=auto;html=1;exitX=0.5;exitY=1;exitDx=0;exitDy=0;" edge="1" parent="1" source="dGLLMFxv43-P8aLfuzKe-59">
          <mxGeometry relative="1" as="geometry">
            <mxPoint x="830" y="1090" as="targetPoint" />
          </mxGeometry>
        </mxCell>
        <mxCell id="dGLLMFxv43-P8aLfuzKe-59" value="put number into higher-number array" style="rounded=0;whiteSpace=wrap;html=1;" vertex="1" parent="1">
          <mxGeometry x="770" y="980" width="120" height="60" as="geometry" />
        </mxCell>
        <mxCell id="dGLLMFxv43-P8aLfuzKe-77" style="edgeStyle=orthogonalEdgeStyle;rounded=0;orthogonalLoop=1;jettySize=auto;html=1;exitX=0.5;exitY=1;exitDx=0;exitDy=0;" edge="1" parent="1" source="dGLLMFxv43-P8aLfuzKe-60">
          <mxGeometry relative="1" as="geometry">
            <mxPoint x="601" y="1090" as="targetPoint" />
          </mxGeometry>
        </mxCell>
        <mxCell id="dGLLMFxv43-P8aLfuzKe-60" value="put number into lower-number array" style="rounded=0;whiteSpace=wrap;html=1;" vertex="1" parent="1">
          <mxGeometry x="540" y="980" width="120" height="60" as="geometry" />
        </mxCell>
        <mxCell id="dGLLMFxv43-P8aLfuzKe-61" style="edgeStyle=orthogonalEdgeStyle;rounded=0;orthogonalLoop=1;jettySize=auto;html=1;exitX=0.5;exitY=1;exitDx=0;exitDy=0;" edge="1" parent="1" source="dGLLMFxv43-P8aLfuzKe-62" target="dGLLMFxv43-P8aLfuzKe-56">
          <mxGeometry relative="1" as="geometry" />
        </mxCell>
        <mxCell id="dGLLMFxv43-P8aLfuzKe-62" value="change pivot &lt;br&gt;number (e.g. 6)" style="shape=parallelogram;perimeter=parallelogramPerimeter;whiteSpace=wrap;html=1;fixedSize=1;" vertex="1" parent="1">
          <mxGeometry x="630" y="730" width="160" height="60" as="geometry" />
        </mxCell>
        <mxCell id="dGLLMFxv43-P8aLfuzKe-63" value="is Number greater than or equal to 8" style="rhombus;whiteSpace=wrap;html=1;" vertex="1" parent="1">
          <mxGeometry x="1005" y="835" width="150" height="150" as="geometry" />
        </mxCell>
        <mxCell id="dGLLMFxv43-P8aLfuzKe-64" value="yes" style="endArrow=classic;html=1;exitX=1;exitY=0.5;exitDx=0;exitDy=0;entryX=0.425;entryY=0.017;entryDx=0;entryDy=0;entryPerimeter=0;" edge="1" parent="1" source="dGLLMFxv43-P8aLfuzKe-63">
          <mxGeometry width="50" height="50" relative="1" as="geometry">
            <mxPoint x="1290" y="945" as="sourcePoint" />
            <mxPoint x="1201" y="981.02" as="targetPoint" />
            <Array as="points">
              <mxPoint x="1200" y="910" />
            </Array>
          </mxGeometry>
        </mxCell>
        <mxCell id="dGLLMFxv43-P8aLfuzKe-65" value="no" style="endArrow=classic;html=1;exitX=0;exitY=0.5;exitDx=0;exitDy=0;entryX=0.417;entryY=-0.05;entryDx=0;entryDy=0;entryPerimeter=0;" edge="1" parent="1" source="dGLLMFxv43-P8aLfuzKe-63" target="dGLLMFxv43-P8aLfuzKe-68">
          <mxGeometry width="50" height="50" relative="1" as="geometry">
            <mxPoint x="1120" y="945" as="sourcePoint" />
            <mxPoint x="970" y="975" as="targetPoint" />
            <Array as="points">
              <mxPoint x="970" y="910" />
            </Array>
          </mxGeometry>
        </mxCell>
        <mxCell id="dGLLMFxv43-P8aLfuzKe-66" style="edgeStyle=orthogonalEdgeStyle;rounded=0;orthogonalLoop=1;jettySize=auto;html=1;exitX=0.5;exitY=1;exitDx=0;exitDy=0;" edge="1" parent="1" source="dGLLMFxv43-P8aLfuzKe-67" target="dGLLMFxv43-P8aLfuzKe-63">
          <mxGeometry relative="1" as="geometry" />
        </mxCell>
        <mxCell id="dGLLMFxv43-P8aLfuzKe-67" value="change pivot &lt;br&gt;number (e.g. 8)" style="shape=parallelogram;perimeter=parallelogramPerimeter;whiteSpace=wrap;html=1;fixedSize=1;" vertex="1" parent="1">
          <mxGeometry x="1000" y="725" width="160" height="60" as="geometry" />
        </mxCell>
        <mxCell id="dGLLMFxv43-P8aLfuzKe-79" style="edgeStyle=orthogonalEdgeStyle;rounded=0;orthogonalLoop=1;jettySize=auto;html=1;exitX=0.5;exitY=1;exitDx=0;exitDy=0;" edge="1" parent="1" source="dGLLMFxv43-P8aLfuzKe-68">
          <mxGeometry relative="1" as="geometry">
            <mxPoint x="981" y="1090" as="targetPoint" />
          </mxGeometry>
        </mxCell>
        <mxCell id="dGLLMFxv43-P8aLfuzKe-68" value="put number into lower-number array" style="rounded=0;whiteSpace=wrap;html=1;" vertex="1" parent="1">
          <mxGeometry x="920" y="980" width="120" height="60" as="geometry" />
        </mxCell>
        <mxCell id="dGLLMFxv43-P8aLfuzKe-69" value="" style="endArrow=classic;html=1;exitX=0.5;exitY=1;exitDx=0;exitDy=0;entryX=0.688;entryY=-0.067;entryDx=0;entryDy=0;entryPerimeter=0;" edge="1" parent="1" source="dGLLMFxv43-P8aLfuzKe-29" target="dGLLMFxv43-P8aLfuzKe-62">
          <mxGeometry width="50" height="50" relative="1" as="geometry">
            <mxPoint x="830" y="900" as="sourcePoint" />
            <mxPoint x="880" y="850" as="targetPoint" />
          </mxGeometry>
        </mxCell>
        <mxCell id="dGLLMFxv43-P8aLfuzKe-80" style="edgeStyle=orthogonalEdgeStyle;rounded=0;orthogonalLoop=1;jettySize=auto;html=1;exitX=0.5;exitY=1;exitDx=0;exitDy=0;" edge="1" parent="1" source="dGLLMFxv43-P8aLfuzKe-71" target="dGLLMFxv43-P8aLfuzKe-81">
          <mxGeometry relative="1" as="geometry">
            <mxPoint x="1201" y="1080" as="targetPoint" />
          </mxGeometry>
        </mxCell>
        <mxCell id="dGLLMFxv43-P8aLfuzKe-71" value="put number into lower-number array" style="rounded=0;whiteSpace=wrap;html=1;" vertex="1" parent="1">
          <mxGeometry x="1140" y="980" width="120" height="60" as="geometry" />
        </mxCell>
        <mxCell id="dGLLMFxv43-P8aLfuzKe-81" value="Create new array with sorted numbers" style="rounded=0;whiteSpace=wrap;html=1;" vertex="1" parent="1">
          <mxGeometry x="420" y="1130" width="120" height="60" as="geometry" />
        </mxCell>
        <mxCell id="dGLLMFxv43-P8aLfuzKe-82" value="" style="endArrow=classic;html=1;exitX=0.5;exitY=1;exitDx=0;exitDy=0;" edge="1" parent="1" source="dGLLMFxv43-P8aLfuzKe-81" target="dGLLMFxv43-P8aLfuzKe-83">
          <mxGeometry width="50" height="50" relative="1" as="geometry">
            <mxPoint x="370" y="1040" as="sourcePoint" />
            <mxPoint x="480" y="1290" as="targetPoint" />
          </mxGeometry>
        </mxCell>
        <mxCell id="dGLLMFxv43-P8aLfuzKe-83" value="End" style="rounded=1;whiteSpace=wrap;html=1;" vertex="1" parent="1">
          <mxGeometry x="420" y="1260" width="120" height="60" as="geometry" />
        </mxCell>
      </root>
    </mxGraphModel>
  </diagram>
</mxfile>
